<svg width="20" height="14" viewBox="0 0 20 14" fill="none" xmlns="http://www.w3.org/2000/svg">
<path d="M2.01677 7.59432C1.90328 7.41462 1.84654 7.32477 1.81477 7.18618C1.79091 7.08208 1.79091 6.91792 1.81477 6.81382C1.84654 6.67524 1.90328 6.58539 2.01677 6.40569C2.95461 4.9207 5.74617 1.16667 10.0003 1.16667C14.2545 1.16667 17.0461 4.9207 17.9839 6.40569C18.0974 6.58539 18.1541 6.67524 18.1859 6.81382C18.2098 6.91792 18.2098 7.08208 18.1859 7.18618C18.1541 7.32477 18.0974 7.41462 17.9839 7.59432C17.0461 9.0793 14.2545 12.8333 10.0003 12.8333C5.74617 12.8333 2.95461 9.0793 2.01677 7.59432Z" stroke="#5B5D60" stroke-width="1.66667" stroke-linecap="round" stroke-linejoin="round"/>
<path d="M10.0003 9.5C11.381 9.5 12.5003 8.38071 12.5003 7C12.5003 5.61929 11.381 4.5 10.0003 4.5C8.61962 4.5 7.50034 5.61929 7.50034 7C7.50034 8.38071 8.61962 9.5 10.0003 9.5Z" stroke="#5B5D60" stroke-width="1.66667" stroke-linecap="round" stroke-linejoin="round"/>
</svg>
