<svg width="24" height="25" viewBox="0 0 24 25" fill="none" xmlns="http://www.w3.org/2000/svg">
<path d="M9.13626 9.39117L4.92893 5.18384M4.92893 19.326L9.16797 15.0869M14.8611 15.1186L19.0684 19.326M19.0684 5.18384L14.8287 9.4235M22 12.2549C22 17.7777 17.5228 22.2549 12 22.2549C6.47715 22.2549 2 17.7777 2 12.2549C2 6.73204 6.47715 2.25488 12 2.25488C17.5228 2.25488 22 6.73204 22 12.2549ZM16 12.2549C16 14.464 14.2091 16.2549 12 16.2549C9.79086 16.2549 8 14.464 8 12.2549C8 10.0457 9.79086 8.25488 12 8.25488C14.2091 8.25488 16 10.0457 16 12.2549Z" stroke="#F0F0F0" stroke-width="2" stroke-linecap="round" stroke-linejoin="round"/>
</svg>
