<svg width="30" height="24" viewBox="0 0 30 24" fill="none" xmlns="http://www.w3.org/2000/svg">
<path d="M26 0H4C1.79086 0 0 1.79086 0 4V20C0 22.2091 1.79086 24 4 24H26C28.2091 24 30 22.2091 30 20V4C30 1.79086 28.2091 0 26 0Z" fill="#C93728"/>
<path opacity="0.15" d="M26 0H4C1.791 0 0 1.791 0 4V20C0 22.209 1.791 24 4 24H26C28.209 24 30 22.209 30 20V4C30 1.791 28.209 0 26 0ZM29 20C29 21.654 27.654 23 26 23H4C2.346 23 1 21.654 1 20V4C1 2.346 2.346 1 4 1H26C27.654 1 29 2.346 29 4V20Z" fill="#7A7A7A"/>
<path opacity="0.2" d="M26 1H4C2.343 1 1 2.343 1 4V5C1 3.343 2.343 2 4 2H26C27.657 2 29 3.343 29 5V4C29 2.343 27.657 1 26 1Z" fill="white"/>
<path d="M17.008 12.366L20.257 10.006H16.241L15 6.18604L13.759 10.006H9.74298L12.992 12.366L11.751 16.186L15 13.825L18.249 16.186L17.008 12.366Z" fill="#FFFF55"/>
</svg>
